<svg id="gear" width="100" height="101" viewBox="0 0 100 101" xmlns="http://www.w3.org/2000/svg">
<path id="gearContent" fill-rule="evenodd" clip-rule="evenodd" d="M47.5425 1.39547C48.4651 0.868099 49.5979 0.868182 50.5204 1.39569L58.3886 5.89473C59.1483 6.3291 59.6804 7.0735 59.8456 7.93285L60.6481 12.1089C63.3804 12.8979 65.9924 13.9703 68.4503 15.2923L72.5515 12.5896C73.2821 12.108 74.1866 11.9695 75.0279 12.2103L83.7416 14.7047C84.7632 14.9971 85.5539 15.8083 85.8203 16.8371L88.0915 25.6115C88.3108 26.4587 88.1493 27.3593 87.6493 28.0775L84.954 31.9485C86.0413 34.0155 86.9529 36.1893 87.6691 38.45L92.2199 39.3304C93.0791 39.4966 93.8228 40.0296 94.2563 40.7898L98.7456 48.6636C99.272 49.5867 99.2707 50.7195 98.7422 51.6415L94.2346 59.5048C93.7994 60.264 93.0545 60.7953 92.1949 60.9595L87.9316 61.7741C87.0858 64.6708 85.9212 67.4316 84.4783 70.0158L86.7623 73.5862C87.2339 74.3234 87.3601 75.2297 87.1079 76.0676L84.4954 84.7466C84.189 85.7642 83.3672 86.5438 82.3349 86.7961L73.5304 88.9479C72.6803 89.1556 71.782 88.9819 71.0707 88.4722L67.8066 86.1331C65.5408 87.299 63.1491 88.2549 60.6575 88.9751L59.8437 93.2075C59.6785 94.0668 59.1463 94.8112 58.3867 95.2455L50.5181 99.7439C49.5956 100.271 48.4628 100.271 47.5402 99.7439L39.6717 95.2455C38.912 94.8112 38.3798 94.0668 38.2146 93.2075L37.3387 88.6516C34.7387 87.8206 32.2544 86.7308 29.916 85.4127L26.5899 87.605C25.8593 88.0866 24.9548 88.2252 24.1135 87.9844L15.3997 85.4907C14.378 85.1983 13.5872 84.3873 13.3208 83.3585L11.0489 74.5842C10.8296 73.7371 10.991 72.8364 11.491 72.1182L13.8751 68.6935C12.7389 66.466 11.8053 64.1178 11.0986 61.6734L6.92034 60.8654C6.06118 60.6992 5.3174 60.1662 4.88391 59.4061L0.393968 51.5327C-0.132471 50.6095 -0.131245 49.4768 0.397193 48.5548L4.90418 40.6911C5.33931 39.9319 6.08425 39.4005 6.94376 39.2362L11.4119 38.3822C12.2914 35.6233 13.462 32.9944 14.8878 30.5316L12.3784 26.6095C11.9068 25.8724 11.7805 24.9662 12.0327 24.1282L14.6446 15.449C14.9508 14.4314 15.7726 13.6517 16.8049 13.3994L25.6092 11.2469C26.4593 11.0391 27.3577 11.2128 28.069 11.7224L32.0331 14.5628C33.7412 13.7307 35.5173 13.0166 37.3509 12.4312L38.2164 7.93126C38.3817 7.07194 38.9139 6.32761 39.6736 5.89336L47.5425 1.39547ZM49.5 68C59.165 68 67 60.165 67 50.5C67 40.835 59.165 33 49.5 33C39.835 33 32 40.835 32 50.5C32 60.165 39.835 68 49.5 68Z" />
</svg>


